# xmcd CD database file generated by OrangeCD 5.2
#
# Track frame offsets:
#	150
#	9009
#	14259
#	20967
#	37610
#	47436
#	61213
#	71715
#	82473
#	99781
#	108240
#	117424
#	126961
#	134787
#	146815
#	158441
#	165512
#
# Disc length: 2366 seconds
#
# Revision: 0
# Processed by: cddbd v1.5.1PL0 Copyright (c) Steve Scherf et al.
# Submitted via: OrangeCD 5.2
#
DISCID=dc093c11
DTITLE=Sons of the San Joaquin - For The Young, And The Young At Heart
DYEAR=2005
DGENRE=Country
TTITLE0=Hitch Up The Wagon
TTITLE1=Read, 'Rite and Recite
TTITLE2=I Love To Ride My Pony
TTITLE3=21 Missions
TTITLE4=Joaquin, The Primero Vaquero
TTITLE5=The Gold Rush
TTITLE6=The Rail Road Song
TTITLE7=The Gold In California
TTITLE8=There's No Place Like California
TTITLE9=His Name Is Sing Song
TTITLE10=Patience
TTITLE11=Zeke, The Trail Herdin' Cowboy
TTITLE12=Hello Waddie
TTITLE13=I Wanna Go!
TTITLE14=Keep A Pressin' On
TTITLE15=It's Great To Be At The Top
TTITLE16=The Mountain
EXTD=
EXTT0=
EXTT1=
EXTT2=
EXTT3=
EXTT4=
EXTT5=
EXTT6=
EXTT7=
EXTT8=
EXTT9=
EXTT10=
EXTT11=
EXTT12=
EXTT13=
EXTT14=
EXTT15=
EXTT16=
PLAYORDER=
